# xmcd CD database file
#
# Track frame offsets:
#	150
#	20521
#	37061
#	57255
#	80031
#	144334
#
# Disc length: 2122 seconds
#
# Revision: 2
# Processed by: cddbd v1.5.2PL0 Copyright (c) Steve Scherf et al.
# Submitted via: CDex 1.50beta10
#
DISCID=4d084806
DTITLE=Richard Betts - Highway Call (VM)
DYEAR=1974
DGENRE=Southern Rock
TTITLE0=Long Time Gone
TTITLE1=Rain
TTITLE2=Highway Call
TTITLE3=Let Nature Sing
TTITLE4=Hand Picked
TTITLE5=Kissimmee Kid
EXTD=YEAR: 1974
EXTT0=
EXTT1=
EXTT2=
EXTT3=
EXTT4=
EXTT5=
PLAYORDER=
